<?xml version="1.0" encoding="UTF-8" standalone="no"?>
<svg xmlns="http://www.w3.org/2000/svg" viewBox="0 0 500 300" width="500" height="300">
  <!-- White background -->
  <rect width="500" height="300" fill="#ffffff"/>
  
  <!-- Coordinate Grid -->
  <g stroke="#e0e0e0" stroke-width="1">
    <!-- Vertical grid lines -->
    <line x1="50" y1="50" x2="50" y2="250" />
    <line x1="100" y1="50" x2="100" y2="250" />
    <line x1="150" y1="50" x2="150" y2="250" />
    <line x1="200" y1="50" x2="200" y2="250" />
    <line x1="250" y1="50" x2="250" y2="250" />
    <line x1="300" y1="50" x2="300" y2="250" />
    <line x1="350" y1="50" x2="350" y2="250" />
    <line x1="400" y1="50" x2="400" y2="250" />
    <line x1="450" y1="50" x2="450" y2="250" />
    
    <!-- Horizontal grid lines -->
    <line x1="50" y1="50" x2="450" y2="50" />
    <line x1="50" y1="100" x2="450" y2="100" />
    <line x1="50" y1="150" x2="450" y2="150" />
    <line x1="50" y1="200" x2="450" y2="200" />
    <line x1="50" y1="250" x2="450" y2="250" />
  </g>
  
  <!-- Axes -->
  <line x1="50" y1="250" x2="450" y2="250" stroke="#888" stroke-width="2"/>
  <line x1="50" y1="50" x2="50" y2="250" stroke="#888" stroke-width="2"/>
  
  <!-- Control Points -->
  <circle cx="80" cy="200" r="6" fill="#3F51B5" stroke="#303F9F" stroke-width="2"/>
  <circle cx="250" cy="80" r="6" fill="#F44336" stroke="#D32F2F" stroke-width="2"/>
  <circle cx="420" cy="200" r="6" fill="#3F51B5" stroke="#303F9F" stroke-width="2"/>
  
  <!-- Control Point Labels -->
  <text x="70" y="180" font-family="Arial" font-size="12" text-anchor="middle">P₀</text>
  <text x="250" y="60" font-family="Arial" font-size="12" text-anchor="middle">P₁</text>
  <text x="430" y="180" font-family="Arial" font-size="12" text-anchor="middle">P₂</text>
  
  <!-- Straight Lines between Control Points -->
  <line x1="80" y1="200" x2="250" y2="80" stroke="#9E9E9E" stroke-width="1.5" stroke-dasharray="5,5"/>
  <line x1="250" y1="80" x2="420" y2="200" stroke="#9E9E9E" stroke-width="1.5" stroke-dasharray="5,5"/>
  
  <!-- Quadratic Bézier Curve -->
  <path d="M 80 200 Q 250 80 420 200" stroke="#4CAF50" stroke-width="3" fill="none"/>
  
  <!-- Interpolation Points -->
  <g id="interpolation-points">
    <circle cx="80" cy="200" r="3" fill="#3F51B5"/>
    <circle cx="107" cy="176" r="3" fill="#3F51B5"/>
    <circle cx="134" cy="156" r="3" fill="#3F51B5"/>
    <circle cx="165" cy="136" r="3" fill="#3F51B5"/>
    <circle cx="196" cy="116" r="3" fill="#3F51B5"/>
    <circle cx="227" cy="104" r="3" fill="#3F51B5"/>
    <circle cx="250" cy="96" r="3" fill="#3F51B5"/>
    <circle cx="279" cy="104" r="3" fill="#3F51B5"/>
    <circle cx="308" cy="116" r="3" fill="#3F51B5"/>
    <circle cx="339" cy="136" r="3" fill="#3F51B5"/>
    <circle cx="366" cy="156" r="3" fill="#3F51B5"/>
    <circle cx="393" cy="176" r="3" fill="#3F51B5"/>
    <circle cx="420" cy="200" r="3" fill="#3F51B5"/>
  </g>
  
  <!-- Parameter t labels -->
  <text x="65" y="220" font-family="Arial" font-size="10" text-anchor="middle">t = 0</text>
  <text x="250" y="116" font-family="Arial" font-size="10" text-anchor="middle">t = 0.5</text>
  <text x="435" y="220" font-family="Arial" font-size="10" text-anchor="middle">t = 1</text>
  
  <!-- Formula -->
  <text x="250" y="275" font-family="Arial" font-size="12" text-anchor="middle" font-style="italic">
    B(t) = (1-t)²P₀ + 2(1-t)tP₁ + t²P₂,  0 ≤ t ≤ 1
  </text>
  
  <!-- Title -->
  <text x="250" y="30" font-family="Arial" font-size="16" font-weight="bold" text-anchor="middle">
    Quadratic Bézier Curve
  </text>
</svg> 